<svg id="Layer_1" enable-background="new 0 0 512 512" height="512" viewBox="0 0 512 512" width="512" xmlns="http://www.w3.org/2000/svg"><g><path d="m271 264.033v9.1h9.1c48.985 0 89.434-39.61 89.434-89.433v-9.1h-9.1c-48.988 0-89.434 39.614-89.434 89.433z"/><path d="m151.566 174.6h-9.1v9.1c0 49.769 40.399 89.433 89.434 89.433h9.1v-9.1c0-49.767-40.396-89.433-89.434-89.433z"/><path d="m368.467 0c-38.89 0-88.029 18.692-112.467 58.144-24.436-39.447-73.546-58.144-112.467-58.144-70.022 0-143.533 51.164-143.533 159.6 0 200.208 244.221 347.955 248.58 350.436 2.3 1.309 4.86 1.964 7.42 1.964s5.12-.655 7.42-1.964c39.22-22.326 248.58-166.758 248.58-350.436 0-111.249-76.286-159.6-143.533-159.6zm31.066 183.7c0 66.593-54.076 119.433-119.434 119.433h-9.099v58.03c0 8.284-6.716 15-15 15s-15-6.716-15-15v-58.03h-9.1c-65.294 0-119.434-52.786-119.434-119.433v-24.1c0-8.284 6.716-15 15-15h24.1c47.242 0 85.169 26.868 104.434 61.401 19.26-34.524 57.179-61.401 104.434-61.401h24.1c8.284 0 15 6.716 15 15v24.1z"/></g></svg>