<svg id="Layer_1" enable-background="new 0 0 512 512" height="512" viewBox="0 0 512 512" width="512" xmlns="http://www.w3.org/2000/svg"><g><path d="m384.533 144.6h-24.1c-47.255 0-85.173 26.877-104.434 61.401-19.265-34.532-57.191-61.401-104.434-61.401h-24.1c-8.284 0-15 6.716-15 15v24.1c0 66.647 54.139 119.433 119.434 119.433h9.1v58.03c0 8.284 6.716 15 15 15s15-6.716 15-15v-58.03h9.1c65.357 0 119.434-52.84 119.434-119.433v-24.1c0-8.284-6.716-15-15-15zm-143.533 128.533h-9.1c-49.035 0-89.434-39.664-89.434-89.433v-9.1h9.1c49.037 0 89.434 39.666 89.434 89.433zm128.533-89.433c0 49.823-40.448 89.433-89.434 89.433h-9.099v-9.1c0-49.82 40.446-89.433 89.434-89.433h9.1v9.1z"/><path d="m368.467 0c-38.921 0-88.031 18.697-112.467 58.144-24.438-39.452-73.577-58.144-112.467-58.144-67.247 0-143.533 48.351-143.533 159.6 0 183.678 209.36 328.11 248.58 350.436 2.3 1.309 4.86 1.964 7.42 1.964s5.12-.655 7.42-1.964c38.113-21.696 248.58-165.774 248.58-350.436 0-108.436-73.511-159.6-143.533-159.6zm-112.467 479.246c-40.38-26.308-226-156.183-226-319.646 0-104.725 74.493-129.6 113.533-129.6 39.307 0 97.467 25.871 97.467 81.4 0 8.284 6.716 15 15 15s15-6.716 15-15c0-55.529 58.16-81.4 97.467-81.4 39.049 0 113.533 24.882 113.533 129.6 0 163.463-185.62 293.338-226 319.646z"/></g></svg>